<?xml version="1.0" encoding="UTF-8" standalone="no"?>
<!-- Created with Inkscape (http://www.inkscape.org/) -->
<svg xmlns:dc="http://purl.org/dc/elements/1.1/" xmlns:cc="http://creativecommons.org/ns#" xmlns:rdf="http://www.w3.org/1999/02/22-rdf-syntax-ns#" xmlns:svg="http://www.w3.org/2000/svg" xmlns="http://www.w3.org/2000/svg" xmlns:xlink="http://www.w3.org/1999/xlink" xmlns:sodipodi="http://sodipodi.sourceforge.net/DTD/sodipodi-0.dtd" xmlns:inkscape="http://www.inkscape.org/namespaces/inkscape" width="266.70267" height="381.48972" id="svg2" inkscape:version="0.47 r22583" version="1.0" inkscape:output_extension="org.inkscape.output.svg.inkscape" inkscape:export-filename="C:\LIN\PROJECT\wk2008\MyMotudo\OpenClipArt\foo.png" inkscape:export-xdpi="90" inkscape:export-ydpi="90" sodipodi:version="0.32" sodipodi:docname="silhouette_soldier.svg">
  <sodipodi:namedview inkscape:window-height="707" inkscape:window-width="1022" inkscape:pageshadow="2" inkscape:pageopacity="0.0" guidetolerance="10.0" gridtolerance="10.0" objecttolerance="10.0" borderopacity="1.0" bordercolor="#666666" pagecolor="#ffffff" id="base" showgrid="false" inkscape:zoom="1.2575" inkscape:cx="85.464953" inkscape:cy="176.80864" inkscape:window-x="0" inkscape:window-y="7" inkscape:current-layer="layer1" inkscape:window-maximized="0"/>
  <defs id="defs4">
    <inkscape:perspective sodipodi:type="inkscape:persp3d" inkscape:vp_x="0 : 200 : 1" inkscape:vp_y="0 : 1000 : 0" inkscape:vp_z="400 : 200 : 1" inkscape:persp3d-origin="200 : 133.33333 : 1" id="perspective17"/>
    <linearGradient id="linearGradient3203">
      <stop style="stop-color: rgb(255, 0, 0); stop-opacity: 1;" offset="0" id="stop3205"/>
      <stop style="stop-color: rgb(255, 104, 0); stop-opacity: 1;" offset="1" id="stop3207"/>
    </linearGradient>
    <linearGradient id="linearGradient3183">
      <stop style="stop-color: rgb(255, 255, 255); stop-opacity: 0.274336;" offset="0" id="stop3185"/>
      <stop style="stop-color: rgb(255, 255, 255); stop-opacity: 0;" offset="1" id="stop3187"/>
    </linearGradient>
    <linearGradient inkscape:collect="always" xlink:href="#linearGradient3203" id="linearGradient3229" x1="316.50101" y1="181.67508" x2="127.23658" y2="180.7045" gradientUnits="userSpaceOnUse"/>
    <linearGradient inkscape:collect="always" xlink:href="#linearGradient3203" id="linearGradient3239" x1="127.23658" y1="188.46919" x2="316.50101" y2="188.46919" gradientUnits="userSpaceOnUse"/>
    <linearGradient inkscape:collect="always" xlink:href="#linearGradient3203" id="linearGradient3260" gradientUnits="userSpaceOnUse" x1="127.23658" y1="188.46919" x2="316.50101" y2="188.46919"/>
    <linearGradient inkscape:collect="always" xlink:href="#linearGradient3183" id="linearGradient3262" gradientUnits="userSpaceOnUse" gradientTransform="matrix(1.06724,0,0,1.06724,-10.1062,-17.443)" x1="211.1076" y1="122.72435" x2="246.98857" y2="181.57127"/>
    <linearGradient y2="181.57127" x2="246.98857" y1="122.72435" x1="211.1076" gradientTransform="matrix(1.06724,0,0,1.06724,-10.1062,-17.443)" gradientUnits="userSpaceOnUse" id="linearGradient2432" xlink:href="#linearGradient3183" inkscape:collect="always"/>
    <linearGradient y2="188.46919" x2="316.50101" y1="188.46919" x1="127.23658" gradientUnits="userSpaceOnUse" id="linearGradient2430" xlink:href="#linearGradient3203" inkscape:collect="always"/>
    <linearGradient gradientUnits="userSpaceOnUse" y2="188.46919" x2="316.50101" y1="188.46919" x1="127.23658" id="linearGradient2428" xlink:href="#linearGradient3203" inkscape:collect="always"/>
    <linearGradient gradientUnits="userSpaceOnUse" y2="180.7045" x2="127.23658" y1="181.67508" x1="316.50101" id="linearGradient2426" xlink:href="#linearGradient3203" inkscape:collect="always"/>
    <linearGradient id="linearGradient2420">
      <stop id="stop2422" offset="0" style="stop-color: rgb(255, 255, 255); stop-opacity: 0.274336;"/>
      <stop id="stop2424" offset="1" style="stop-color: rgb(255, 255, 255); stop-opacity: 0;"/>
    </linearGradient>
    <linearGradient id="linearGradient2414">
      <stop id="stop2416" offset="0" style="stop-color: rgb(255, 0, 0); stop-opacity: 1;"/>
      <stop id="stop2418" offset="1" style="stop-color: rgb(255, 104, 0); stop-opacity: 1;"/>
    </linearGradient>
    <inkscape:perspective id="perspective2412" inkscape:persp3d-origin="200 : 133.33333 : 1" inkscape:vp_z="400 : 200 : 1" inkscape:vp_y="0 : 1000 : 0" inkscape:vp_x="0 : 200 : 1" sodipodi:type="inkscape:persp3d"/>
  </defs>
  <metadata id="metadata7">
    <rdf:RDF>
      <cc:Work rdf:about="">
        <dc:format>image/svg+xml</dc:format>
        <dc:type rdf:resource="http://purl.org/dc/dcmitype/StillImage"/>
        <cc:license rdf:resource="http://creativecommons.org/licenses/publicdomain/"/>
        <dc:title/>
        <dc:creator>
          <cc:Agent>
            <dc:title>motudo</dc:title>
          </cc:Agent>
        </dc:creator>
      </cc:Work>
      <cc:License rdf:about="http://creativecommons.org/licenses/publicdomain/">
        <cc:permits rdf:resource="http://creativecommons.org/ns#Reproduction"/>
        <cc:permits rdf:resource="http://creativecommons.org/ns#Distribution"/>
        <cc:permits rdf:resource="http://creativecommons.org/ns#DerivativeWorks"/>
      </cc:License>
    </rdf:RDF>
  </metadata>
  <g inkscape:label="Layer 1" inkscape:groupmode="layer" id="layer1" transform="translate(-16.339666,-8.0427882)">
    <path style="fill:#000000;fill-opacity:1;fill-rule:evenodd;stroke:#ffffff;stroke-width:3" d="m 135.34742,101.32906 c -7.23532,0.0273 -15.5318,0.20831 -24.01194,0.036 -19.368628,0 -34.955924,13.88424 -34.955924,31.13993 l 0,238.75146 c 0,17.25569 35.271364,19.40077 35.653154,1.84458 l 1.89476,-87.12839 c 0,-5.83649 4.7115,-10.54797 10.54798,-10.54797 l 6.40798,0 c 5.83648,0 10.54798,4.71149 10.54798,10.54797 l 1.19465,90.78901 c 0.1544,11.7332 33.32403,20.10313 34.51727,-5.5052 l 0,-238.75146 c 0,-17.25569 -15.58729,-31.13993 -34.95592,-31.13993 -2.14985,-0.0473 -4.42821,-0.0451 -6.83999,-0.036 z" id="rect2389" sodipodi:nodetypes="ccccsccccscccc"/>
    <path style="fill:#000000;fill-opacity:1;fill-rule:evenodd;stroke:#ffffff;stroke-width:3" d="M 76.397157,103.15862 C 63.485524,97.223143 48.322606,102.86275 42.387122,115.77439 l -22.178806,48.24622 c -4.716343,10.2596 -2.152006,21.96516 5.583555,29.31133 l 16.484706,7.06294 c 10.147395,0.49863 20.026054,-5.12253 24.542495,-14.9473 l 22.178804,-48.24621 c 5.935487,-12.91163 0.310911,-28.10726 -12.600719,-34.04275 z" id="rect3168" sodipodi:nodetypes="cccccccc"/>
    <rect style="fill:#000000;fill-opacity:1;fill-rule:evenodd;stroke:#ffffff;stroke-width:3" id="rect3166" width="85.197403" height="49.418579" x="189.95537" y="-100.43106" ry="24.70929" transform="matrix(0.60383922,0.79710614,-0.79710614,0.60383922,0,0)"/>
    <g id="g2848" transform="matrix(0.95191238,-0.30637041,0.30637041,0.95191238,-69.645765,72.064264)">
      <path id="path2456" d="m 142.34593,166.20282 70.77534,-33.3996 69.98012,27.833 -7.95228,130.41749 -55.66601,61.23261 -51.68986,-54.87078 -25.44731,-131.21272 z" style="fill:#000000;fill-opacity:1;fill-rule:evenodd;stroke:#ffffff;stroke-width:3.20000005;stroke-linecap:butt;stroke-linejoin:miter;stroke-miterlimit:4;stroke-opacity:1;stroke-dasharray:none"/>
      <path id="path3228" d="m 223.45924,333.20084 40.55666,-44.5328 -3.97614,-2.38569 -36.58052,46.91849 z" style="fill:#ffffff;fill-opacity:1;fill-rule:evenodd;stroke:none"/>
    </g>
    <path sodipodi:type="arc" style="fill:#000000;fill-opacity:1;fill-rule:evenodd;stroke:#ffffff;stroke-width:3" id="path3232" sodipodi:cx="124.45328" sodipodi:cy="68.787277" sodipodi:rx="44.930416" sodipodi:ry="44.135189" d="m 169.38369,68.787277 c 0,24.375192 -20.11603,44.135193 -44.93041,44.135193 -24.814386,0 -44.930419,-19.760001 -44.930419,-44.135193 0,-24.375192 20.116033,-44.135189 44.930419,-44.135189 24.81438,0 44.93041,19.759997 44.93041,44.135189 z" transform="translate(-3.18092,-15.1093)"/>
    <path style="fill:#000000;fill-opacity:1;fill-rule:evenodd;stroke:#ffffff;stroke-width:3" d="M 140.38446,65.491482 116.67265,86.528236 56.419802,175.1314 44.59528,168.62143 l -12.799772,12.42989 15.608754,6.65612 -17.391446,22.88647 14.611242,8.25359 14.086964,-24.7319 12.578217,9.64747 6.426747,-13.08508 -11.184851,-8.77562 61.522185,-89.353525 12.33114,-27.057363 z" id="path3183" sodipodi:nodetypes="cccccccccccccc"/>
  </g>
</svg>